<svg width="32" height="32" viewBox="0 0 32 32" fill="none" xmlns="http://www.w3.org/2000/svg">
<path d="M27.9999 5.33333H3.99992C3.29267 5.33333 2.6144 5.61429 2.1143 6.11438C1.6142 6.61448 1.33325 7.29276 1.33325 8V24C1.33325 24.7072 1.6142 25.3855 2.1143 25.8856C2.6144 26.3857 3.29267 26.6667 3.99992 26.6667H27.9999C28.7072 26.6667 29.3854 26.3857 29.8855 25.8856C30.3856 25.3855 30.6666 24.7072 30.6666 24V8C30.6666 7.29276 30.3856 6.61448 29.8855 6.11438C29.3854 5.61429 28.7072 5.33333 27.9999 5.33333ZM3.5 7.61626H15V24.5H3.5V7.61626ZM28.2983 24.5H15.9999V7.61626H28.2983V24.5ZM26.6666 18C26.6666 17.6333 26.3666 17.3333 25.9999 17.3333H24.6666C24.2999 17.3333 23.9999 17.6333 23.9999 18V22C23.9999 22.3667 24.2999 22.6667 24.6666 22.6667H25.9999C26.3666 22.6667 26.6666 22.3667 26.6666 22V18ZM22.6666 10C22.6666 9.63333 22.3666 9.33333 21.9999 9.33333H17.9999C17.6333 9.33333 17.3333 9.63333 17.3333 10V16.6667C17.3333 17.0333 17.6333 17.3333 17.9999 17.3333H21.9999C22.3666 17.3333 22.6666 17.0333 22.6666 16.6667V10ZM24.6666 13.3333H25.9999C26.3666 13.3333 26.6666 13.0333 26.6666 12.6667C26.6666 12.3 26.3666 12 25.9999 12H24.6666C24.2999 12 23.9999 12.3 23.9999 12.6667C23.9999 13.0333 24.2999 13.3333 24.6666 13.3333ZM24.6666 16H25.9999C26.3666 16 26.6666 15.7 26.6666 15.3333C26.6666 14.9667 26.3666 14.6667 25.9999 14.6667H24.6666C24.2999 14.6667 23.9999 14.9667 23.9999 15.3333C23.9999 15.7 24.2999 16 24.6666 16ZM17.9999 20H21.9999C22.3666 20 22.6666 19.7 22.6666 19.3333C22.6666 18.9667 22.3666 18.6667 21.9999 18.6667H17.9999C17.6333 18.6667 17.3333 18.9667 17.3333 19.3333C17.3333 19.7 17.6333 20 17.9999 20ZM21.9999 21.3333H17.9999C17.6333 21.3333 17.3333 21.6333 17.3333 22C17.3333 22.3667 17.6333 22.6667 17.9999 22.6667H21.9999C22.3666 22.6667 22.6666 22.3667 22.6666 22C22.6666 21.6333 22.3666 21.3333 21.9999 21.3333ZM24.6666 10.6667H25.9999C26.3666 10.6667 26.6666 10.3667 26.6666 10C26.6666 9.63333 26.3666 9.33333 25.9999 9.33333H24.6666C24.2999 9.33333 23.9999 9.63333 23.9999 10C23.9999 10.3667 24.2999 10.6667 24.6666 10.6667ZM13.3333 10C13.3333 9.63333 13.0333 9.33333 12.6666 9.33333H5.99992C5.63325 9.33333 5.33325 9.63333 5.33325 10V14C5.33325 14.3667 5.63325 14.6667 5.99992 14.6667H12.6666C13.0333 14.6667 13.3333 14.3667 13.3333 14V10ZM12.6679 18.6667H6.00125C5.63592 18.6667 5.33459 18.9667 5.33459 19.3333C5.33459 19.7 5.63592 20 6.00125 20H12.6679C13.0333 20 13.3333 19.7 13.3333 19.3333C13.3333 18.9667 13.0333 18.6667 12.6679 18.6667ZM12.6679 16H6.00125C5.63592 16 5.33459 16.3 5.33459 16.6667C5.33459 17.0333 5.63592 17.3333 6.00125 17.3333H12.6679C13.0333 17.3333 13.3333 17.0333 13.3333 16.6667C13.3333 16.3 13.0333 16 12.6679 16ZM12.6679 21.3333H6.00125C5.63592 21.3333 5.33459 21.6333 5.33459 22C5.33459 22.3667 5.63592 22.6667 6.00125 22.6667H12.6679C13.0333 22.6667 13.3333 22.3667 13.3333 22C13.3333 21.6333 13.0333 21.3333 12.6679 21.3333Z" fill="#0068D6"/>
<path d="M6 10.5C6 10.2239 6.22386 10 6.5 10H12C12.2761 10 12.5 10.2239 12.5 10.5V13.5C12.5 13.7761 12.2761 14 12 14H6.5C6.22386 14 6 13.7761 6 13.5V10.5Z" fill="#0068D6"/>
<path d="M18 10.5C18 10.2239 18.2239 10 18.5 10H21.5C21.7761 10 22 10.2239 22 10.5V16.2537C22 16.5298 21.7761 16.7537 21.5 16.7537H18.5C18.2239 16.7537 18 16.5298 18 16.2537V10.5Z" fill="#0068D6"/>
</svg>
