<svg width="18" height="18" viewBox="0 0 18 18" fill="none" xmlns="http://www.w3.org/2000/svg">
<path d="M13.1011 2.95717L15.0426 4.89776L13.1011 2.95717ZM14.3496 1.24759L9.09984 6.49734C8.82858 6.76822 8.64359 7.11333 8.56817 7.48918L8.08325 9.91651L10.5106 9.43068C10.8864 9.35551 11.2311 9.17126 11.5024 8.89993L16.7522 3.65017C16.9099 3.49242 17.0351 3.30514 17.1204 3.09902C17.2058 2.8929 17.2498 2.67198 17.2498 2.44888C17.2498 2.22578 17.2058 2.00487 17.1204 1.79875C17.0351 1.59263 16.9099 1.40535 16.7522 1.24759C16.5944 1.08984 16.4071 0.964697 16.201 0.87932C15.9949 0.793943 15.774 0.75 15.5509 0.75C15.3278 0.75 15.1069 0.793943 14.9007 0.87932C14.6946 0.964697 14.5073 1.08984 14.3496 1.24759V1.24759Z" stroke="#0068D6" stroke-width="1.5" stroke-linecap="round" stroke-linejoin="round"/>
<path d="M15.4166 11.7487V14.4987C15.4166 14.9849 15.2235 15.4512 14.8797 15.7951C14.5358 16.1389 14.0695 16.332 13.5833 16.332H3.49996C3.01373 16.332 2.54741 16.1389 2.2036 15.7951C1.85978 15.4512 1.66663 14.9849 1.66663 14.4987V4.41536C1.66663 3.92913 1.85978 3.46282 2.2036 3.119C2.54741 2.77519 3.01373 2.58203 3.49996 2.58203H6.24996" stroke="#0068D6" stroke-width="1.5" stroke-linecap="round" stroke-linejoin="round"/>
</svg>
