<svg width="18" height="18" viewBox="0 0 18 18" fill="none" xmlns="http://www.w3.org/2000/svg">
<path d="M14.25 6.375C14.6642 6.375 15 6.03921 15 5.625C15 5.21079 14.6642 4.875 14.25 4.875V6.375ZM7.5 4.875C7.08579 4.875 6.75 5.21079 6.75 5.625C6.75 6.03921 7.08579 6.375 7.5 6.375V4.875ZM14.25 4.875H7.5V6.375H14.25V4.875Z" fill="#001D3D"/>
<path d="M10.5 13.125C10.9142 13.125 11.25 12.7892 11.25 12.375C11.25 11.9608 10.9142 11.625 10.5 11.625V13.125ZM3.75 11.625C3.33579 11.625 3 11.9608 3 12.375C3 12.7892 3.33579 13.125 3.75 13.125V11.625ZM10.5 11.625H3.75V13.125H10.5V11.625Z" fill="#001D3D"/>
<circle cx="4.875" cy="5.625" r="2.625" stroke="#001D3D" stroke-width="1.5"/>
<circle cx="13.125" cy="12.375" r="2.625" stroke="#001D3D" stroke-width="1.5"/>
</svg>
