<svg width="36" height="32" viewBox="0 0 36 32" fill="none" xmlns="http://www.w3.org/2000/svg">
<path d="M25.5 7.5C25.5 10.9125 20.9312 16.9937 18.925 19.4438C18.4437 20.1 17.5563 20.1 17.075 19.4438C15.0688 16.9937 10.5 10.9125 10.5 7.5C10.5 3.35813 13.8562 0 18 0C22.1437 0 25.5 3.35813 25.5 7.5ZM18 9.5C19.3813 9.5 20.5 8.38125 20.5 7C20.5 5.61938 19.3813 4.5 18 4.5C16.6187 4.5 15.5 5.61938 15.5 7C15.5 8.38125 16.6187 9.5 18 9.5ZM26.6 11.2375C26.6313 11.1625 26.6625 11.0875 26.6938 11.0063L33.9437 8.10625C34.9312 7.7125 36 8.4375 36 9.5V26.425C36 27.0375 35.625 27.5875 35.0563 27.8188L26 31.4375V12.525C26.2188 12.0938 26.4188 11.6687 26.6 11.2375ZM9.4 11.2375C9.58125 11.6687 9.78125 12.0938 10 12.525V28.2375L2.05687 31.4188C1.07187 31.7563 0 31.0875 0 30.025V13.1C0 12.4875 0.373438 11.8813 0.943125 11.7063L8.6 8.64375C8.75 9.53125 9.05625 10.4125 9.4 11.2375ZM20.4875 20.6938C21.3562 19.6625 22.7188 17.8937 24 15.9375V31.5187L12 28.0875V15.9375C13.2812 17.8937 14.6438 19.6625 15.5125 20.6938C16.7938 22.35 19.2062 22.35 20.4875 20.6938Z" fill="#0068D6"/>
<path d="M21 7C21 8.65685 19.6569 10 18 10C16.3431 10 15 8.65685 15 7C15 5.34315 16.3431 4 18 4C19.6569 4 21 5.34315 21 7Z" fill="white"/>
</svg>
