<svg width="32" height="32" viewBox="0 0 32 32" fill="none" xmlns="http://www.w3.org/2000/svg">
<path d="M1 9.64339C1 8.6771 1.37817 7.75039 2.05131 7.06712C2.72445 6.38386 3.63742 6 4.58938 6H26.1257C27.0777 6 27.9906 6.38386 28.6638 7.06712C29.3369 7.75039 29.7151 8.6771 29.7151 9.64339V14.5182C29.5283 14.4213 29.3358 14.3362 29.1387 14.2632L29.1182 14.2549L28.8772 14.1737L28.1214 13.9426C27.9714 13.8965 27.8186 13.8603 27.664 13.8343V9.64339C27.664 9.22927 27.5019 8.83211 27.2134 8.53928C26.9249 8.24645 26.5337 8.08194 26.1257 8.08194H4.58938C4.1814 8.08194 3.79012 8.24645 3.50164 8.53928C3.21315 8.83211 3.05108 9.22927 3.05108 9.64339V23.176C3.05108 23.5901 3.21315 23.9873 3.50164 24.2801C3.79012 24.5729 4.1814 24.7374 4.58938 24.7374H9.20431V22.6555C9.20431 22.1033 9.4204 21.5738 9.80505 21.1833C10.1897 20.7929 10.7114 20.5736 11.2554 20.5736H19.4597C20.0037 20.5736 20.5254 20.7929 20.91 21.1833C21.2947 21.5738 21.5108 22.1033 21.5108 22.6555V23.5705C21.0735 23.5697 20.641 23.6636 20.2423 23.8458C19.8435 24.028 19.4876 24.2943 19.1982 24.6271L19.1736 24.6562L19.0331 24.8353L17.6219 26.8194H4.58938C3.63742 26.8194 2.72445 26.4355 2.05131 25.7522C1.37817 25.069 1 24.1423 1 23.176V9.64339ZM19.4597 14.3277C19.4597 15.4321 19.0275 16.4912 18.2582 17.2721C17.4889 18.0529 16.4455 18.4916 15.3575 18.4916C14.2696 18.4916 13.2262 18.0529 12.4569 17.2721C11.6876 16.4912 11.2554 15.4321 11.2554 14.3277C11.2554 13.2234 11.6876 12.1643 12.4569 11.3834C13.2262 10.6026 14.2696 10.1639 15.3575 10.1639C16.4455 10.1639 17.4889 10.6026 18.2582 11.3834C19.0275 12.1643 19.4597 13.2234 19.4597 14.3277ZM25.2909 16.4222C25.518 16.006 25.8786 15.6812 26.3128 15.5021C26.747 15.3229 27.2286 15.3001 27.6773 15.4374L28.4126 15.6623L28.6095 15.7289C29.2186 15.9551 29.756 16.3446 30.1644 16.856C30.5729 17.3674 30.8372 17.9815 30.9293 18.6332C31.2339 20.7859 30.5529 23.303 28.9111 26.1896C27.2733 29.0689 25.4704 30.9239 23.486 31.7359C22.8484 31.9967 22.1504 32.0662 21.475 31.9361C20.7996 31.806 20.1752 31.4818 19.6761 31.002L19.1202 30.4669L18.9951 30.3358C18.686 29.9817 18.5049 29.5314 18.4816 29.059C18.4583 28.5865 18.5942 28.1201 18.8669 27.7365L20.2586 25.7794L20.3519 25.6608C20.5474 25.436 20.8025 25.273 21.0867 25.1914C21.3709 25.1098 21.6723 25.113 21.9548 25.2007L24.0582 25.8534L24.1126 25.8638H24.1567C24.4079 25.8357 24.9186 25.3204 25.5463 24.217C26.2436 22.9907 26.3872 22.2735 26.1954 22.0882L25.1258 21.0763L24.9894 20.9379C24.6489 20.5633 24.4244 20.0954 24.3438 19.5924C24.2632 19.0893 24.3301 18.5733 24.5361 18.1085L25.215 16.5773L25.2909 16.4222Z" fill="#0068D6"/>
<path d="M19.4597 14.3277C19.4597 16.6274 17.6231 18.4916 15.3575 18.4916C13.092 18.4916 11.2554 16.6274 11.2554 14.3277C11.2554 12.0281 13.092 10.1639 15.3575 10.1639C17.6231 10.1639 19.4597 12.0281 19.4597 14.3277Z" fill="#0068D6"/>
</svg>
