<svg width="32" height="32" viewBox="0 0 32 32" fill="none" xmlns="http://www.w3.org/2000/svg">
<path d="M24.6667 12H28.6667V28H24.6667V12ZM19.3334 17.3333H23.3334V28H19.3334V17.3333ZM14 14.6667H18V28H14V14.6667ZM8.66671 21.3333H12.6667V28H8.66671V21.3333ZM3.33337 18.6667H7.33337V28H3.33337V18.6667Z" fill="#0068D6"/>
<path d="M5.33337 12.6667C6.43794 12.6667 7.33337 11.7712 7.33337 10.6667C7.33337 9.5621 6.43794 8.66667 5.33337 8.66667C4.2288 8.66667 3.33337 9.5621 3.33337 10.6667C3.33337 11.7712 4.2288 12.6667 5.33337 12.6667Z" fill="#F9800B"/>
<path d="M10.6667 14C11.7713 14 12.6667 13.1046 12.6667 12C12.6667 10.8954 11.7713 10 10.6667 10C9.56218 10 8.66675 10.8954 8.66675 12C8.66675 13.1046 9.56218 14 10.6667 14Z" fill="#F9800B"/>
<path d="M16 9.33333C17.1046 9.33333 18 8.4379 18 7.33333C18 6.22876 17.1046 5.33333 16 5.33333C14.8954 5.33333 14 6.22876 14 7.33333C14 8.4379 14.8954 9.33333 16 9.33333Z" fill="#F9800B"/>
<path d="M21.3334 10.6667C22.4379 10.6667 23.3334 9.77124 23.3334 8.66667C23.3334 7.5621 22.4379 6.66667 21.3334 6.66667C20.2288 6.66667 19.3334 7.5621 19.3334 8.66667C19.3334 9.77124 20.2288 10.6667 21.3334 10.6667Z" fill="#F9800B"/>
<path d="M26.6667 8C27.7713 8 28.6667 7.10457 28.6667 6C28.6667 4.89543 27.7713 4 26.6667 4C25.5622 4 24.6667 4.89543 24.6667 6C24.6667 7.10457 25.5622 8 26.6667 8Z" fill="#F9800B"/>
<path d="M26.0667 4.8L21.2 7.26667L15.6667 5.86667L10.3333 10.5333L5.66667 9.4L5 11.9333L11 13.4667L16.3333 8.8L21.4667 10.0667L27.2667 7.2L26.0667 4.8Z" fill="#F9800B"/>
</svg>
