<svg width="16" height="16" viewBox="0 0 16 16" fill="none" xmlns="http://www.w3.org/2000/svg">
<path d="M11.5022 3.77786H4.47845V12.1445C4.47845 13.0467 5.20957 13.3934 6.11179 13.3934H9.8689C10.7711 13.3934 11.5022 13.0467 11.5022 12.1445V3.77786ZM6.8889 3.55564V2.66675H9.11112V3.55564" fill="white"/>
<path d="M11.3333 8.22217V12.8046L10.7333 13.3333H7.33331L11.3333 8.22217Z" fill="#FFEC0D"/>
<path d="M3.77777 3.55566H12.2222V4.44455H3.77777V3.55566Z" fill="white"/>
<path d="M6.88888 3.55548V2.16968L9.1111 2.16986V3.55548M11.3333 5.55548V12.4444C11.3333 12.6801 11.2397 12.9062 11.073 13.0729C10.9063 13.2396 10.6802 13.3333 10.4444 13.3333H5.55555C5.3198 13.3333 5.09371 13.2396 4.92701 13.0729C4.76031 12.9062 4.66666 12.6801 4.66666 12.4444V5.55548M9.1111 6.2777V12.2221M6.88888 6.2777V12.2221M3.77777 3.55548H12.2222V4.55233H3.77777V3.55548Z" stroke="#FF0000" stroke-width="0.8" stroke-miterlimit="10" stroke-linecap="round" stroke-linejoin="round"/>
</svg>
